# xmcd CD database file
#
# Track frame offsets:
#	150
#	14737
#	33787
#	53512
#	78633
#	102783
#	117895
#	138707
#	156510
#	171458
#	187514
#	206489
#
# Disc length: 2952 seconds
#
# Revision: 1
# Processed by: cddbd v1.5.2PL0 Copyright (c) Steve Scherf et al.
# Submitted via: CDex 1.70beta2
#
DISCID=9c0b860c
DTITLE=Ron Tanski - Dragged You Down
DYEAR=2009
DGENRE=Blues
TTITLE0=Marvelous Night For The Blues
TTITLE1=Never Have Another Chance With You
TTITLE2=Don't Leave
TTITLE3=Corner Booth
TTITLE4=Where Were You When I Still Was Cheatin'
TTITLE5=Dragged You Down
TTITLE6=Broken
TTITLE7=Down To The River
TTITLE8=Hurricane Boogie
TTITLE9=Cookieman
TTITLE10=Sund Don't Shine
TTITLE11=Thank You
EXTD=YEAR: 2009
EXTT0=
EXTT1=
EXTT2=
EXTT3=
EXTT4=
EXTT5=
EXTT6=
EXTT7=
EXTT8=
EXTT9=
EXTT10=
EXTT11=
PLAYORDER=
